<svg xmlns="http://www.w3.org/2000/svg" xmlns:xlink="http://www.w3.org/1999/xlink" width="308.18" height="270.89" viewBox="0 0 308.18 270.89"><defs><clipPath id="a"><circle cx="138" cy="136.39" r="125" style="fill:none"/></clipPath></defs><title>bird_button</title><circle cx="138" cy="136.39" r="128" style="fill:#82dd48"/><path d="M261.5,136.39c-.28,51.23-32.66,98.49-81.08,116-48.87,17.71-104.5,2.5-137.7-37.42C9.69,175.29,5.52,117.14,32,72.93S111.58,5,162.27,15.27c50.1,10.11,89.49,51.14,97.72,101.56a126.72,126.72,0,0,1,1.51,19.56c0,5.79,9,5.8,9,0C270.2,81.18,235.33,31,183.44,11.91s-112.37-2.69-147.5,40C.55,94.94-4.36,157.19,24.6,205c28.71,47.35,85.12,72,139.39,61.37C217.62,255.8,260.63,211,268.88,157a142.2,142.2,0,0,0,1.62-20.61C270.53,130.6,261.53,130.59,261.5,136.39Z" style="fill:#1a561a"/><g style="clip-path:url(#a)"><path d="M159.27,264.39s7.56-59.61,17-70l-2.8-3.7,20.15-94.47-1.2-26.36c-1.23-24-11.52-39.57-22-43.92-15.53-6.44-25.57-6.84-25.57-6.84l7.13,9.73-27.71-5.44s4,6.82,6,9.66c.53.76.94,1.29.94,1.29a24.25,24.25,0,0,0-3,.16c-5.15.51-15.35,2-20.3,5.83-6.9,5.36-60.39,141-118.39,231" style="fill:#292947;stroke:#000;stroke-linecap:round;stroke-linejoin:round;stroke-width:7.12312877178192px"/></g><path d="M104.56,132.45c6.07-16.28,19.73-78.35,39.68-73.08s14.52,69.15,13.88,75.38-26.74,4.47-53.26,17.37C101.52,153.75,103.16,136.22,104.56,132.45Z" style="fill:#fff;stroke:#000;stroke-linecap:round;stroke-miterlimit:10;stroke-width:7.12312877178192px"/><path d="M165.18,104.72c.44-5.47,1.33-48.31,14.55-44.78S197,127.43,197,127.43s-27.87,4.58-30.76,7S165.18,104.72,165.18,104.72Z" style="fill:#fff;stroke:#000;stroke-linecap:round;stroke-miterlimit:10;stroke-width:7.12312877178192px"/><polygon points="103.45 153.81 151 138.46 215.87 128.87 247.54 133.21 279.31 149.73 291.01 171 286.08 174.95 277.66 179.84 267.05 192.31 241.93 208.03 209.92 208.56 159.9 197.13 120.97 185.54 106.88 166.87 103.45 153.81" style="fill:#fbae17"/><path d="M147.71,118.67c.83,4.64-1.67,9.41-4,10.7s-5.68-4-6.3-9.54,1.18-10.37,4-10.69S146.72,113.14,147.71,118.67Z" style="stroke:#000;stroke-linecap:round;stroke-miterlimit:10;stroke-width:4.27387726306915px"/><path d="M186.88,114c.43,3.79-1,7.46-3.67,7.75s-4.25-2.56-4.68-6.35.52-7.1,3.15-7.39S186.46,110.21,186.88,114Z" style="stroke:#000;stroke-linecap:round;stroke-miterlimit:10;stroke-width:4.07000929349754px"/><path d="M254,155c3.45,1.07,9,6.28,9,6.28" style="fill:none;stroke:#000;stroke-linecap:round;stroke-linejoin:round;stroke-width:7.12312877178192px"/><path d="M290.25,171.13c-8.47-47.42-87.79-42.65-92.32-42.14s-73.13,13.45-90.48,22.29" style="fill:none;stroke:#000;stroke-linecap:round;stroke-miterlimit:10;stroke-width:7.12312877178192px"/><path d="M290.55,171.93c-4.37,1.95-24.78,15.09-63.83,18.24s-51.61-8.36-71.14-13.25" style="fill:none;stroke:#000;stroke-linecap:round;stroke-linejoin:round;stroke-width:7.12312877178192px"/><path d="M103,152.82c-.88,3.23,9.43,24.51,18.44,32.22,5.73,4.9,91.68,25.11,107.63,25.4,15.75.29,44.86-21,49.08-29.82" style="fill:none;stroke:#000;stroke-linecap:round;stroke-linejoin:round;stroke-width:7.12312877178192px"/></svg>