<?xml version="1.0" encoding="utf-8"?>
<!-- Generator: Adobe Illustrator 22.1.0, SVG Export Plug-In . SVG Version: 6.00 Build 0)  -->
<svg version="1.1" id="Ebene_1" xmlns="http://www.w3.org/2000/svg" xmlns:xlink="http://www.w3.org/1999/xlink" x="0px" y="0px"
	 width="267px" height="332.5px" viewBox="0 0 267 332.5" style="enable-background:new 0 0 267 332.5;" xml:space="preserve">
<style type="text/css">
	.st0{fill:#292947;stroke:#000000;stroke-width:2.5;stroke-linecap:round;stroke-linejoin:round;}
	.st1{fill:#F8AD1B;}
	.st2{fill:#292947;}
	.st3{fill:#FFFFFF;stroke:#000000;stroke-width:2.5;stroke-linecap:round;stroke-miterlimit:10;}
	.st4{fill:#FBAE17;}
	.st5{stroke:#000000;stroke-width:1.5;stroke-linecap:round;stroke-miterlimit:10;}
	.st6{fill:none;stroke:#000000;stroke-width:2.5;stroke-linecap:round;stroke-linejoin:round;}
	.st7{fill:none;stroke:#000000;stroke-width:2.5;stroke-linecap:round;stroke-miterlimit:10;}
	.st8{fill:none;stroke:#000000;stroke-width:2.29;stroke-linecap:round;stroke-linejoin:round;}
</style>
<title>ani</title>
<g id="HINTERFLUEGEL">
	<g id="_01_Kopie">
		<path class="st0" d="M172,161.4c-0.9-1.8,12.7-34.5,16.3-41.9c4-8.3,13.8-28.8,14-37c0.1-6.3,9-14.5,10.1-16.2
			c11.9-13.2,17.8-29.7,15.7-30.4c-1.6-0.5-10.4,7.8-31.2,32.5l1-1.5c10.1-13.6,12-28.7,8-29.3c-3.2-0.5-10.3,8.5-19.9,35.3
			l-1.1,0.5c5.9-14.9,2.4-27.8-1.6-28.1c-3.6-0.2-7.6,9.5-5.7,36.7l-0.1,1.2c0,0-1.4-2.6-2.5-9.3c-1-6.4-2.7-24-9.4-18.3
			c-6,5.2,0.6,30.3,5.3,42.2l0.1,0.2c-5.7-15.3-15.6-23.7-19.9-21.9c-3.2,1.3-1.2,9.4,6.7,26.5l-1.1-1.9c-3.8-1.1-10.6,2.4-12.2,7.6
			s-4,18.2-5.5,18.2l-11.6-0.4l4.3,34.3"/>
	</g>
</g>
<g id="static">
	<path class="st1" d="M115.3,197.9c-1.1,0.7-5-2.4-6.9-1.1c-1.4,1-2.4,1.8-3.9,2.7c-3.1,1.6-5.8,3.9-7.9,6.7l-0.3,0.2
		c1.7,1.7,2.5,3.1,3,6.9c-1.6,0.8-4.9-2.3-4.9-3.2c1.7,3.6,0.6,6,0,6.1c-1.2-0.2-2.3-0.9-2.9-2c-1.4-2.7-0.3-3.5-0.6-5.5
		c0.1,2.2-1.3,4.2-3.4,4.8c-0.2-1.6-0.8-3.1-0.3-4.6c0.8-2.4,0.5-3,1.1-3.3c-0.8-0.2-2.7-1.2-2.6-2.2c1.4,0,2.8-0.1,4.2-0.5h-0.1
		c3.7-0.9,9.8-5.3,12.2-7.1h-0.1c2.1-3.1-3.8-4-5.7-2.8c-1.2,0.8-2.2,1.1-4.3,2.6c-1.6,1.1-4.2,2.8-5.9,3.8c-3.5,1.9-6.6,4.4-9,7.6
		l-0.3,0.2c1.9,1.9,1.1,4,1.7,8.4c-1.8,0.9-4.2-2.8-4.2-3.9c0.7,2.5,0.1,5.2-1.6,7.3c-0.4,0.1-1.3-1-2.2-2.7c-1.6-3.1,0-3.6-0.8-6.2
		c0.1,2.7-1.1,4.7-3.4,5.3c-0.2-1.8-1.2-4.3-0.7-6c0.9-2.7,1.5-2.9,2.2-3.2c-0.9-0.3-3-1.9-3-3c1.6,0.2,3.2,0.2,4.7,0h-0.1
		c4.2-1,12-7.2,14.8-9.2c3.5-2.6,0-9.8,1.4-10.6"/>
	<path class="st2" d="M97.8,182.7l-12.5,0.1l-0.5,3.8l1.2,4.4c1.1,1.3,2.6,2.2,4.3,2.4c2.1,0.1,4.2,0,6.3-0.5l4.4,0.2l1.5,1.1
		c1.1,2.9,4.2,3.5,8,2.4l2.7,1.6l1.8-0.6l-6.1-9.6L97.8,182.7z"/>
	<path class="st0" d="M93,185.1c-1.4-0.9-12.7,0.5-17.3,0.4c-4.3-0.1-18.1-0.2-18.1-0.2c-20.2,1.1-26.8,0.5-30.5-0.1
		c-4.9-0.7-14.7-3.1-4.4-4s13.3-0.4,18.6-2.1l-4.3,1.1c-5.3-1.7-15.6-1.2-25.9-2.1s0.9-4.1,4.5-5.1c2.4-0.7,6.2-1.2,14.3,0
		c4.1,0.6,11.9,3.4,18.7,3.5l0.8-0.1c-7.3,1.2-40.8-9.7-35.1-11.2c7.6-2.1,16.7,2,26.7,3.6s24.5,5,45.8,1.2
		c20.7-3.7,26.9-14.1,52.4-14.8c11.8-0.3,23.9,4,25,4.3s10.5,3.9,15.3,2.3s16.5-18.6,19.1-20.2c1.9-1.1,5.5-1.3,7.3-1.2
		c0.4,0,0.7,0,1.1,0.1c0,0-0.1-0.2-0.3-0.5c-0.6-1.1-1.7-3.6-1.7-3.6l9.4,3l-2.1-3.7c3,0.7,6,1.8,8.6,3.4c3.5,1.9,6.5,7.7,6,16.2
		l-0.6,9.2l-26.2,29.7l-0.3,0.2c-4.2,0.3-15.5,7.1-15.5,7.1c-10.1,5-36.5,7.9-51.9,5.2c-19.8-3.4-19.1-10.2-28-17.4"/>
	<path class="st3" d="M194,173.6c2.8-5.4,9.9-26.6,16.7-23.9s2.4,24.7,1.9,26.8s-9.5,0.5-19.3,4C192.1,180.9,193.3,174.9,194,173.6z
		"/>
	<path class="st3" d="M216.2,166.3c0.4-1.9,2.4-16.8,6.8-15.1s3.4,24.2,3.4,24.2s-9.9,0.5-11,1.2S216.2,166.3,216.2,166.3z"/>
	<polygon class="st4" points="192.8,181 209.9,177.5 232.9,176.7 243.8,179.4 254.2,186.4 257.5,194.3 255.6,195.5 252.5,196.9 
		248.3,200.8 238.9,205.3 227.8,204.2 210.8,198.3 197.6,192.8 193.4,185.7 	"/>
	<path class="st5" d="M209.3,170.4c0.1,1.4-0.6,2.8-1.8,3.6c-0.9,0.4-1.8-1.6-1.8-3.6s0.8-3.6,1.8-3.6S209.2,168.4,209.3,170.4z"/>
	<path class="st5" d="M223.4,169.8c0,1.3-0.7,2.6-1.8,2.6s-1.5-1.1-1.5-2.4s0.5-2.4,1.5-2.4S223.4,168.5,223.4,169.8z"/>
	<path class="st6" d="M245.2,187.3c1.1,0.7,2.1,1.6,2.9,2.6"/>
	<path class="st7" d="M257.2,194.3c-1.1-16.9-29-18.3-30.6-18.3s-26,1.8-32.4,4.2"/>
	<path class="st6" d="M257.3,194.6c-1.6,0.5-9.2,4.3-23,3.9s-17.7-4.9-24.3-7.4"/>
	<path class="st6" d="M192.6,180.6c-0.4,1.1,2.3,8.9,5.2,12c1.8,1.9,31,12.3,36.6,13.1s16.5-5.6,18.3-8.5"/>
	<path class="st8" d="M110.1,196.3c-1.4,1.1-4.1,2.3-5.6,3.2c-3,1.8-5.6,3.3-7.9,6.4l-0.3,0.5c1.7,1.7,2.5,3.1,3,6.9
		c-1.6,0.8-4.9-2.3-4.9-3.2c1.7,3.6,0.6,6,0,6.1c-1.2-0.2-2.3-0.9-2.9-2c-1.4-2.7-0.3-3.5-0.6-5.5c0.1,2.2-1.3,4.2-3.4,4.8
		c-0.2-1.6-0.8-3.1-0.3-4.6c0.8-2.4,0.5-3,1.1-3.3c-0.8-0.2-2.7-1.2-2.6-2.2c1.4,0,2.8-0.1,4.2-0.5h-0.1c3.7-0.8,7.5-4.1,10.7-6.3
		l1.4-0.9c2.1-3.1-3.8-4-5.7-2.8c-1.2,0.8-2.2,1.1-4.3,2.6c-1.6,1.1-4.2,2.8-5.9,3.8c-3.5,1.9-6.6,4.4-9,7.6l-0.3,0.2
		c1.9,1.9,1.1,4,1.7,8.4c-1.8,0.9-4.2-2.8-4.2-3.9c0.7,2.5,0.1,5.2-1.6,7.3c-0.4,0.1-1.3-1-2.2-2.7c-1.6-3.1,0-3.6-0.8-6.2
		c0.1,2.7-1.1,4.7-3.4,5.3c-0.2-1.8-1.2-4.3-0.7-6c0.9-2.7,1.5-2.9,2.2-3.2c-0.9-0.3-3-1.9-3-3c1.6,0.2,3.2,0.2,4.7,0h-0.1
		c4.2-1,12-7.2,14.8-9.2c3.5-2.6-0.5-8,0.8-8.9"/>
</g>
<g id="VORDERFLUEGEL">
	<g id="_01">
		<path class="st0" d="M153.4,164.5c-4.8-0.1-13.9-4.4-15.4-15.4s2.7-45.5,3.7-48.7s4.5-19.6,0.1-23.1c-6.1-4.9-40-56.1-83.2-70
			c0,0-21.9-1.9,12.5,27.4c0,0,8.7,6.1,16.5,11s12.9,8.7,12.9,8.7C71.2,32,50.6,28.4,51.1,35.2C51.5,40,65,53.1,99.8,67.8l0.3-0.2
			c-25.1-12.8-52.3-11.1-51-5.8c1.4,5.5,15.7,11.8,49,17.5l0.4,0.3c-26.1-7.7-46.3,5.9-46.3,12.6c0,5.2,10.2,2.6,41.4-2.1L93,89.9
			c-19.2,1.1-32.8,19.5-30.2,24.2c1.9,3.5,6.4-1.8,27.6-7.9l1.1-0.1c-16.7,11.5-18.6,23.4-16.4,29.1c1,2.6,9-1.1,15.1-7.5l-6.1,6
			c-1.7,3.4-6.8,12.9-5.4,22.2c1.3,9.1,0.8,12.7,16.7,22.5"/>
	</g>
</g>
</svg>
